<svg id="svg8" xmlns="http://www.w3.org/2000/svg" viewBox="0 0 489.2 82.7"><style>.st0{enable-background:new}.st1{fill:green}.st2{fill:#0f0}</style><g class="st0"><path class="st1" d="M282 20.8h12.4l3.2 2.5 3-2.5H313l4 3.2-4 3.4h-12.4l-3.2-2.5-3 2.5h-11.7v17.7l-2.9 2.8 2.9 2.6v17.6h11.7l3.2 2.5 3-2.5h11.7v-17h-11.7l-4-3.3 4-3.4H313l6.8 6.1v18.1l-6.8 6.1h-12.4l-3.2-2.5-3 2.5H282l-6.8-6.1v-18l2.9-2.8-2.9-2.6V26.9l6.8-6.1z"/></g><g class="st0"><path class="st1" d="M246.5 76l-3.8-3.6V54.3l2.9-2.8-2.9-2.6V31.2h-11.5l-4-3.2 4-3.4h12.2l3.2 2.5 3-2.5h12.2l4 3.2-4 3.4h-11.6v17.6l-2.9 2.8 2.9 2.6v18.1l-3.7 3.7z"/></g><g class="st0"><path class="st1" d="M227.9 49.9V68l-6.8 6.1h-12.4l-3.2-2.5-3 2.5h-12.4l-4-3.2 4-3.4h12.4l3.2 2.5 3-2.5h11.7v-17h-11.7l-3.2-2.6-3 2.6h-12.4l-6.8-6V26.3l6.8-6.1h12.4l3.2 2.5 3-2.5h12.4l4 3.2-4 3.4h-12.4l-3.2-2.5-3 2.5h-11.7v17.1h11.7l3.2 2.6 3-2.6h12.4l6.8 6z"/></g><g class="st0"><path class="st1" d="M166.7 15.2l7.5 16.7-1.5 3.8 3.8 1.2 7.5 16.5-3.7 8.4-11.3 5.1-3.9-1-1.7 3.5-11.4 5.1-8.7-2.7-7.5-16.5 1.5-3.8-3.8-1.2-7.5-16.6 3.7-8.4 11.3-5.1 3.9 1 1.7-3.5 11.3-5.1 8.8 2.6zm-16.8 53l10.7-4.8 3.9 1 1.7-3.5 10.7-4.8-7.3-16.1 1.5-3.7-3.7-1.2-7.3-16.1-10.7 4.8-3.9-1-1.7 3.5-10.7 4.7 7.3 16.1-1.5 3.7 3.7 1.2 7.3 16.2z"/></g><g class="st0"><path class="st1" d="M121.8 31.3v18.3l-6.8 6h-12.4L99.4 53l-3 2.5H84.7v17.6l-3.6 3.6-3.8-3.6V55l2.9-2.8-2.9-2.6V31.4l6.8-6.1h12.4l3.2 2.5 3-2.5H115l6.8 6zM84.7 49h11.7l3.2 2.6 3-2.6h11.7V32h-11.7l-3.2-2.5-3 2.5H84.7v17z"/></g><g class="st0"><path class="st1" d="M372.9 54.6v18l-3.6 3.6-3.8-3.6V55.1h-11.7l-3.2-2.5-3 2.5h-11.7v17.5l-3.6 3.6-3.8-3.6v-18l6-5.3v-5.4l10.9-13.6h3.3v7.2l-9 11.2h8.1l3.2 2.5 3-2.5h8.1l-9-11.2v-7.2h3.3l10.9 13.6v5.4l5.6 5.3z"/></g><g class="st0"><path class="st1" d="M385.9 75l-3.8-3.6v-18l2.9-2.8-2.9-2.6V29.8l3.6-3.6 3 2.7h2.5l10.9 13.6v6.1H398L389.5 38v9.8l-2.9 2.8 2.9 2.6v18l-3.6 3.8zm37.1 0l-3.8-3.6v-18l2.9-2.8-2.9-2.6v-9.8l-8.5 10.6h-4.2v-6.1l10.9-13.6h2.4l2.9-2.8 3.8 3.5v18.3l-2.9 2.8 2.9 2.6v18L423 75z"/></g><g class="st0"><path class="st1" d="M445.2 21.8h12.3l3.2 2.5 3-2.5H476l4 3.2-4 3.4h-12.2l-3.2-2.5-3.1 2.5h-11.6v17.1h11.6l3.2 2.6 3-2.6H476l4 3.3-4 3.4h-12.2l-3.2-2.6-3.1 2.6h-11.6v17.1h11.6l3.2 2.5 3-2.5H476l4 3.2-4 3.4h-12.2l-3.2-2.5-3.1 2.5h-12.2l-6.8-6.1V51.5l2.9-2.8-2.9-2.6V27.8l6.7-6z"/></g><g><g class="st0"><path class="st2" d="M278 18.4h12.4l3.2 2.5 3-2.5H309l4 3.2-4 3.4h-12.4l-3.2-2.5-3 2.5h-11.7v17.7l-2.9 2.8 2.9 2.6v17.6h11.7l3.2 2.5 3-2.5h11.7v-17h-11.7l-4-3.3 4-3.4H309l6.8 6.1v18.1l-6.8 6.1h-12.4l-3.2-2.5-3 2.5H278l-6.8-6.1v-18l2.9-2.8-2.9-2.6V24.5l6.8-6.1z"/></g><g class="st0"><path class="st2" d="M242.5 73.6l-3.8-3.6V51.9l2.9-2.8-2.9-2.6V28.8h-11.5l-4-3.2 4-3.4h12.2l3.2 2.5 3-2.5h12.2l4 3.2-4 3.4h-11.6v17.6l-2.9 2.8 2.9 2.6V70l-3.7 3.6z"/></g><g class="st0"><path class="st2" d="M223.9 47.5v18.1l-6.8 6.1h-12.4l-3.2-2.5-3 2.5h-12.4l-4-3.2 4-3.4h12.4l3.2 2.5 3-2.5h11.7v-17h-11.7l-3.2-2.6-3 2.6h-12.4l-6.8-6V23.8l6.8-6.1h12.4l3.2 2.5 3-2.5H217l4 3.2-4 3.4h-12.4l-3.2-2.5-3 2.5h-11.7v17.1h11.7l3.2 2.6 3-2.6H217l6.9 6.1z"/></g><g class="st0"><path class="st2" d="M162.6 12.8l7.5 16.7-1.5 3.8 3.8 1.2 7.5 16.5-3.7 8.4-11.3 5.1-3.9-1-1.7 3.5-11.3 5.1-8.7-2.7-7.5-16.5 1.5-3.8-3.8-1.2-7.5-16.6 3.7-8.4 11.3-5.1 3.9 1 1.7-3.5 11.3-5.1 8.7 2.6zm-16.8 53l10.7-4.8 3.9 1 1.7-3.5 10.7-4.8-7.2-16.1 1.5-3.7-3.7-1.2-7.3-16.1-10.7 4.8-3.9-1-1.7 3.5-10.7 4.8 7.3 16.1-1.5 3.7 3.7 1.2 7.2 16.1z"/></g><g class="st0"><path class="st2" d="M117.8 28.8v18.3l-6.8 6H98.6l-3.2-2.5-3 2.5H80.7v17.6l-3.6 3.6-3.8-3.6V52.6l2.9-2.8-2.9-2.6V29l6.8-6.1h12.4l3.2 2.5 3-2.5h12.4l6.7 5.9zM80.7 46.5h11.7l3.2 2.6 3-2.6h11.7v-17H98.6L95.4 27l-3 2.5H80.7v17z"/></g><g class="st0"><path class="st2" d="M368.9 52.1v18l-3.6 3.6-3.8-3.6V52.6h-11.7l-3.2-2.5-3 2.5h-11.7v17.5l-3.6 3.6-3.8-3.6v-18l6-5.3v-5.4l10.9-13.6h3.3V35l-9 11.2h8.1l3.2 2.5 3-2.5h8.1l-9-11.2v-7.2h3.3l10.9 13.6v5.4l5.6 5.3z"/></g><g class="st0"><path class="st2" d="M381.9 72.6l-3.8-3.6V51l2.9-2.8-2.9-2.6V27.4l3.6-3.6 3 2.7h2.5l10.9 13.6v6.1H394l-8.5-10.6v9.8l-2.9 2.8 2.9 2.6v18l-3.6 3.8zm37 0l-3.8-3.6V51l2.9-2.8-2.9-2.6v-9.8l-8.5 10.6h-4.2v-6.1l10.9-13.6h2.4l2.9-2.8 3.8 3.5v18.3l-2.9 2.8 2.9 2.6v18l-3.5 3.5z"/></g><g class="st0"><path class="st2" d="M441.2 19.3h12.3l3.2 2.5 3-2.5H472l4 3.2-4 3.4h-12.2l-3.2-2.5-3.1 2.5h-11.6V43h11.6l3.2 2.6 3-2.6H472l4 3.3-4 3.4h-12.2l-3.2-2.6-3.1 2.6h-11.6v17.1h11.6l3.2 2.5 3-2.5H472l4 3.2-4 3.4h-12.2l-3.2-2.5-3.1 2.5h-12.2l-6.8-6.1V49.1l2.9-2.8-2.9-2.6V25.4l6.7-6.1z"/></g></g><g><path id="rect4635-5-6-5-9-3-2" fill="#666" d="M0 6.4h2.5v68.7H0z"/><linearGradient id="path4637-8-1-5-6-5-8_1_" gradientUnits="userSpaceOnUse" x1="-223.782" y1="425.712" x2="-199.219" y2="429.69" gradientTransform="matrix(2.8331 0 0 -3.2165 636.722 1396.737)"><stop offset="0" stop-color="#ff3737"/><stop offset="1" stop-color="#ff3737" stop-opacity="0"/></linearGradient><linearGradient id="path4637-8-1-5-6-5-8_3_" gradientUnits="userSpaceOnUse" x1="-229.566" y1="429.623" x2="-206.8" y2="433.634" gradientTransform="matrix(3.0598 0 0 -3.2855 705.196 1439.05)"><stop offset="0" stop-color="#00f"/><stop offset="1" stop-color="#ff3737"/></linearGradient><path id="path4637-8-1-5-6-5-8" d="M2.5 8.5c5.3-1 11.6-1.5 23.8.8 6.4 1.6 10.6 4.1 21 .4 1.7 8.1-.1 23.4-2 27.6-2.9 1.4-3.5 2.2-6.8 2.4-7.6-.8-15.2-3.8-22.4-2.2-6.9.1-10.5-2-13.6-4.3V8.5z" fill="url(#path4637-8-1-5-6-5-8_1_)" stroke="url(#path4637-8-1-5-6-5-8_3_)" stroke-width=".278" stroke-linejoin="bevel" stroke-opacity="0"/></g></svg>